<svg width="26" height="24" viewBox="0 0 26 24" fill="none" xmlns="http://www.w3.org/2000/svg">
<path d="M20.8565 0.00050028C21.4895 -0.00849297 22.1177 0.103849 22.7025 0.330601C23.2872 0.557352 23.8161 0.893706 24.2566 1.31893C24.7113 1.73076 25.071 2.22533 25.3135 2.77214C25.556 3.31895 25.6761 3.90642 25.6665 4.49831V19.5027C25.6649 20.6951 25.1576 21.8382 24.2559 22.6814C23.3542 23.5246 22.1317 23.999 20.8565 24.0005H4.81057C4.17759 24.0095 3.54934 23.8972 2.96457 23.6704C2.3798 23.4436 1.8509 23.1073 1.41048 22.6821C0.955744 22.2702 0.596041 21.7757 0.35355 21.2289C0.111058 20.682 -0.00908252 20.0946 0.000535007 19.5027V4.49831C-0.00908252 3.90642 0.111058 3.31895 0.35355 2.77214C0.596041 2.22533 0.955744 1.73076 1.41048 1.31893C1.8509 0.893706 2.3798 0.557352 2.96457 0.330601C3.54934 0.103849 4.17759 -0.00849297 4.81057 0.00050028H20.8565ZM21.393 7.54936C21.4 7.14111 21.2341 6.74684 20.9313 6.45261C20.7854 6.30546 20.6074 6.18924 20.4094 6.11175C20.2114 6.03427 19.998 5.99733 19.7834 6.00342H5.88362C5.67284 6.00265 5.46397 6.0409 5.26907 6.11597C5.07417 6.19104 4.89709 6.30145 4.74805 6.44082C4.599 6.5802 4.48093 6.74578 4.40064 6.92803C4.32036 7.11028 4.27945 7.30558 4.28028 7.50269C4.30296 7.94255 4.48064 8.36304 4.78561 8.6986C5.10283 9.08686 5.48398 9.42555 5.91481 9.70201C6.43886 10.0404 7.20622 10.5012 8.21689 11.0963C9.22756 11.6913 9.94501 12.123 10.3755 12.3914L10.6625 12.5722L11.0118 12.7881L11.3612 12.9922C11.5172 13.0797 11.6482 13.1497 11.7542 13.1964L12.1161 13.3481C12.2386 13.3931 12.3635 13.4321 12.4904 13.4648C12.7164 13.5115 12.9506 13.5115 13.1767 13.4648C13.3035 13.4321 13.4285 13.3931 13.551 13.3481L13.9128 13.1964C14.0189 13.1497 14.1499 13.0797 14.3059 12.9922L14.6552 12.7881L15.0046 12.5722L15.2916 12.3914L19.7522 9.67284C20.1755 9.40545 20.5504 9.07656 20.8627 8.6986C21.171 8.3812 21.3576 7.97687 21.393 7.54936ZM21.393 16.5041V9.69034C21.0813 10.023 20.7199 10.3118 20.32 10.5479L18.0927 11.878C16.9947 12.5314 16.1525 13.0447 15.5598 13.4239C14.7799 14.0271 13.8274 14.4024 12.821 14.5032C11.8184 14.3985 10.8705 14.0213 10.0947 13.4181C9.57069 13.0836 8.78045 12.6014 7.72403 11.9713C6.66346 11.3413 5.85243 10.8629 5.34709 10.5246C5.15347 10.3971 4.96999 10.2568 4.79809 10.1045C4.56102 9.90619 4.39257 9.76618 4.28028 9.68451V16.5041C4.27945 16.7012 4.32036 16.8966 4.40064 17.0788C4.48093 17.2611 4.599 17.4266 4.74805 17.566C4.89709 17.7054 5.07417 17.8158 5.26907 17.8909C5.46397 17.9659 5.67284 18.0042 5.88362 18.0034H19.7834C19.9947 18.005 20.2043 17.9673 20.3999 17.8926C20.5955 17.8178 20.7733 17.7075 20.923 17.5681C21.0728 17.4286 21.1914 17.2628 21.2721 17.0802C21.3527 16.8975 21.3938 16.7017 21.393 16.5041Z" fill="white"/>
</svg>
