<svg width="26" height="24" viewBox="0 0 26 24" fill="none" xmlns="http://www.w3.org/2000/svg">
<path d="M25.6616 18.958C25.6468 19.3614 25.5875 19.7623 25.4847 20.1543C25.3942 20.5549 25.2643 20.9468 25.0968 21.3251C24.8427 21.8936 24.1033 22.496 22.8784 23.1323C21.8404 23.6846 20.67 23.9823 19.4759 23.9977C19.1528 23.9978 18.83 23.9787 18.5096 23.9404C18.1553 23.8939 17.8051 23.8238 17.4616 23.7304C17.0805 23.6286 16.7811 23.5459 16.611 23.4823L15.5971 23.1323L14.7056 22.8269C13.5906 22.4619 12.5206 21.9862 11.5141 21.4079C9.76639 20.3565 8.15231 19.1225 6.70297 17.7299C5.21287 16.3736 3.89115 14.8645 2.7629 13.2311C2.14782 12.29 1.64358 11.2894 1.259 10.2467L0.932364 9.41312C0.74863 8.95497 0.62614 8.64317 0.558091 8.465C0.490041 8.28683 0.401577 8.01957 0.292697 7.63778C0.194645 7.32437 0.117375 7.0056 0.0613285 6.68329C0.0200813 6.38365 -0.000376354 6.08182 8.38889e-05 5.77971C0.0189404 4.66262 0.339645 3.56814 0.932364 2.59808C1.61286 1.44633 2.25253 0.759102 2.86497 0.517298C3.25883 0.36796 3.66659 0.252934 4.08306 0.173682C4.51273 0.071276 4.95319 0.0136559 5.39642 0.00187466C5.52572 -0.00330513 5.65492 0.0139547 5.7775 0.0527807C5.99525 0.122776 6.32189 0.555477 6.7438 1.32543C6.8799 1.54178 7.06363 1.84722 7.2882 2.24174C7.51276 2.63626 7.73732 2.99897 7.92786 3.32349C8.1184 3.64802 8.30894 3.95982 8.49267 4.2398C8.5335 4.28434 8.63558 4.42433 8.81251 4.66614C8.96111 4.86859 9.09305 5.08132 9.2072 5.30246C9.28539 5.45334 9.3272 5.61843 9.32969 5.78607C9.2797 6.11241 9.10869 6.41195 8.84653 6.63238C8.50111 6.97557 8.12301 7.28866 7.71691 7.56778C7.31944 7.84531 6.94207 8.14717 6.58729 8.47136C6.31655 8.66282 6.13209 8.94197 6.07011 9.25404C6.07465 9.38732 6.10461 9.51877 6.15857 9.6422C6.21982 9.79492 6.27426 9.90946 6.31509 9.99218C6.35592 10.0749 6.44438 10.2085 6.56687 10.3994C6.68936 10.5903 6.76422 10.6985 6.77783 10.724C7.63162 12.1889 8.69885 13.536 9.94894 14.7264C11.2214 15.8989 12.6647 16.8972 14.2361 17.6917L14.5831 17.889C14.7873 18.0099 14.9302 18.0862 15.0186 18.1308C15.1399 18.1852 15.2649 18.232 15.3929 18.2708C15.5226 18.3221 15.6607 18.3522 15.8012 18.3599C16.1348 18.2974 16.4324 18.1232 16.6382 17.8699C16.9885 17.5412 17.3115 17.1881 17.6045 16.8136C17.9087 16.4382 18.2431 16.085 18.6048 15.7573C18.8295 15.5067 19.1394 15.336 19.4827 15.2737C19.6651 15.275 19.8446 15.3164 20.0067 15.3946C20.2439 15.4976 20.4715 15.6189 20.6872 15.7573L21.1431 16.0564C21.4425 16.2282 21.7692 16.4063 22.1162 16.5845L23.2731 17.1827L24.2598 17.6917C25.1104 18.0926 25.5731 18.3917 25.6208 18.5953C25.6602 18.7124 25.6741 18.8358 25.6616 18.958Z" fill="white"/>
</svg>
