<svg width="149" height="42" viewBox="0 0 149 42" fill="none" xmlns="http://www.w3.org/2000/svg">
<g clip-path="url(#clip0)">
<path d="M6.83387 41.9077C7.86182 41.9227 8.87962 41.7055 9.8092 41.2731C10.6986 40.8505 11.4669 40.2159 12.0442 39.4269L10.17 37.5254C9.31722 38.6285 8.25906 39.18 6.99552 39.18C6.26312 39.1932 5.54234 38.9986 4.91919 38.6192C4.29606 38.2398 3.79694 37.692 3.48137 37.0408C3.14192 36.3205 2.96607 35.5362 2.96607 34.7423C2.96607 33.9485 3.14192 33.1638 3.48137 32.4438C3.79694 31.7926 4.29606 31.2448 4.91919 30.8654C5.54234 30.486 6.26312 30.2915 6.99552 30.3046C8.25749 30.3046 9.31565 30.843 10.17 31.92L12.0442 30.0162C11.4627 29.2403 10.699 28.6147 9.81857 28.1931C8.79371 27.732 7.67222 27.5178 6.54669 27.5679C5.42118 27.618 4.3239 27.9312 3.34551 28.4815C2.30445 29.0961 1.45569 29.9818 0.892622 31.0408C0.306469 32.1858 0.00112915 33.4505 0.00112915 34.7331C0.00112915 36.0155 0.306469 37.2803 0.892622 38.4254C1.45899 39.4899 2.31432 40.3788 3.36331 40.9929C4.41231 41.607 5.6138 41.922 6.83387 41.9031V41.9077Z" fill="white"/>
<path d="M20.3024 41.9078C21.5336 41.9288 22.7465 41.6131 23.8065 40.9958C24.8664 40.3787 25.732 39.4843 26.3069 38.4116C26.8997 37.2742 27.2089 36.014 27.2089 34.7355C27.2089 33.457 26.8997 32.1968 26.3069 31.0593C25.8574 30.2673 25.252 29.5713 24.5262 29.0124C23.8004 28.4535 22.9689 28.0425 22.0801 27.8036C21.1913 27.5646 20.2631 27.5025 19.3497 27.6209C18.4363 27.7395 17.5559 28.0358 16.7602 28.4932C15.713 29.1091 14.8579 29.9969 14.2886 31.0593C13.7018 32.1986 13.396 33.4579 13.396 34.7355C13.396 36.013 13.7018 37.2723 14.2886 38.4116C14.8579 39.4741 15.713 40.3619 16.7602 40.9778C17.8321 41.6009 19.0579 41.9203 20.3024 41.9009V41.9078ZM20.3024 39.1732C19.5881 39.182 18.8866 38.9865 18.283 38.6101C17.6769 38.2213 17.1907 37.6762 16.8773 37.034C16.5392 36.3135 16.3641 35.5291 16.3641 34.7355C16.3641 33.9419 16.5392 33.1575 16.8773 32.437C17.1901 31.7946 17.6764 31.2493 18.283 30.8609C18.8903 30.4928 19.5894 30.298 20.3024 30.298C21.0155 30.298 21.7146 30.4928 22.3219 30.8609C22.929 31.2486 23.4155 31.7941 23.7276 32.437C24.067 33.1573 24.243 33.9416 24.243 34.7355C24.243 35.5293 24.067 36.3139 23.7276 37.034C23.4149 37.6766 22.9285 38.222 22.3219 38.6101C21.7184 38.9867 21.0168 39.1824 20.3024 39.1732Z" fill="white"/>
<path d="M35.3313 27.8009H29.8586V41.6702H32.78V37.8463H35.3313C36.3366 37.871 37.3337 37.664 38.2433 37.2417C39.0425 36.8639 39.7059 36.2554 40.1457 35.4971C40.5842 34.6735 40.8134 33.7571 40.8134 32.8271C40.8134 31.8971 40.5842 30.9807 40.1457 30.1571C39.7015 29.4029 39.0392 28.7962 38.2433 28.4148C37.3353 27.9871 36.3375 27.7769 35.3313 27.8009ZM35.1696 35.2317H32.78V30.4109H35.1603C36.0388 30.4109 36.7041 30.6186 37.161 31.0363C37.6178 31.454 37.8474 32.0494 37.8474 32.8294C37.8474 33.6094 37.6131 34.1863 37.161 34.6017C36.7088 35.0171 36.0388 35.2271 35.1603 35.2271L35.1696 35.2317Z" fill="white"/>
<path d="M46.2322 39.0946V35.8846H52.0891V33.3877H46.2322V30.3877H52.8669V27.8008H43.3295V41.67H53.1012V39.0946H46.2322Z" fill="white"/>
<path d="M64.569 27.8008V36.2216L58.2904 27.8008H55.8773V41.67H58.759V33.2492L65.0516 41.67H67.4506V27.8008H64.569Z" fill="white"/>
<path d="M79.5533 27.8008V33.27H73.8183V27.8008H70.8992V41.67H73.8183V35.9839H79.5533V41.67H82.4748V27.8008H79.5533Z" fill="white"/>
<path d="M95.3483 41.67H98.4126L92.7689 27.8008H89.8849L84.2623 41.67H87.254L88.3739 38.6977H94.2308L95.3483 41.67ZM89.3086 36.2608L91.3094 30.9531L93.3101 36.2608H89.3086Z" fill="white"/>
<path d="M108.529 38.58C107.841 38.9793 107.055 39.1844 106.256 39.1731C105.516 39.1907 104.786 38.9984 104.154 38.619C103.521 38.2399 103.012 37.6897 102.688 37.0339C102.343 36.312 102.164 35.5242 102.164 34.7262C102.164 33.9284 102.343 33.1404 102.688 32.4185C103.012 31.7696 103.519 31.2264 104.148 30.8539C104.798 30.4782 105.54 30.2864 106.294 30.3C107.568 30.3 108.656 30.8216 109.557 31.8647L111.431 29.9631C110.834 29.1947 110.055 28.5822 109.161 28.1793C108.215 27.7602 107.186 27.5507 106.148 27.5654C104.895 27.5484 103.661 27.8675 102.578 28.4885C101.526 29.0966 100.668 29.9823 100.099 31.0454C99.5133 32.1905 99.208 33.4554 99.208 34.7377C99.208 36.0204 99.5133 37.285 100.099 38.43C100.667 39.4907 101.522 40.3759 102.569 40.987C103.638 41.6082 104.86 41.9274 106.102 41.91C107.029 41.9054 107.949 41.7494 108.824 41.4485C109.693 41.1621 110.5 40.7184 111.204 40.14V34.5162H108.529V38.58Z" fill="white"/>
<path d="M117.256 39.0946V35.8846H123.112V33.3877H117.256V30.3877H123.888V27.8008H114.353V41.67H124.122V39.0946H117.256Z" fill="white"/>
<path d="M135.602 27.8008V36.2216L129.325 27.8008H126.903V41.67H129.787V33.2492L136.07 41.67H138.469V27.8008H135.602Z" fill="white"/>
<path d="M138.479 0H51.6065V7.74231H138.479V0Z" fill="white"/>
<path d="M66.0848 24.577H141.344V41.7854H149.075V-0.230713H141.344V16.8462H66.0848V24.577Z" fill="white"/>
</g>
<defs>
<clipPath id="clip0">
<rect width="149" height="42" fill="white"/>
</clipPath>
</defs>
</svg>
