<svg width="149" height="42" viewBox="0 0 149 42" fill="none" xmlns="http://www.w3.org/2000/svg">
<g clip-path="url(#clip0)">
<path d="M6.83385 41.9077C7.86181 41.9227 8.8796 41.7055 9.80919 41.2731C10.6986 40.8505 11.4669 40.2159 12.0442 39.4269L10.17 37.5254C9.31721 38.6285 8.25905 39.18 6.9955 39.18C6.26311 39.1932 5.54233 38.9986 4.91918 38.6192C4.29605 38.2399 3.79692 37.692 3.48135 37.0408C3.14191 36.3205 2.96606 35.5362 2.96606 34.7423C2.96606 33.9485 3.14191 33.1638 3.48135 32.4438C3.79692 31.7926 4.29605 31.2448 4.91918 30.8654C5.54233 30.486 6.26311 30.2915 6.9955 30.3046C8.25748 30.3046 9.31564 30.843 10.17 31.92L12.0442 30.0162C11.4627 29.2403 10.699 28.6147 9.81856 28.1931C8.79369 27.732 7.67221 27.5178 6.54667 27.5679C5.42116 27.618 4.32388 27.9312 3.34549 28.4815C2.30443 29.0961 1.45568 29.9818 0.892607 31.0408C0.306454 32.1858 0.00111389 33.4505 0.00111389 34.7331C0.00111389 36.0155 0.306454 37.2803 0.892607 38.4254C1.45898 39.4899 2.31431 40.3788 3.3633 40.9929C4.4123 41.607 5.61378 41.922 6.83385 41.9031V41.9077Z" fill="black"/>
<path d="M20.3024 41.9077C21.5335 41.9287 22.7465 41.613 23.8065 40.9957C24.8664 40.3786 25.732 39.4842 26.3069 38.4115C26.8997 37.2741 27.2089 36.0138 27.2089 34.7354C27.2089 33.4569 26.8997 32.1967 26.3069 31.0592C25.8574 30.2672 25.252 29.5712 24.5262 29.0123C23.8004 28.4534 22.9688 28.0424 22.08 27.8035C21.1913 27.5645 20.2631 27.5024 19.3496 27.6208C18.4362 27.7394 17.5559 28.0357 16.7602 28.4931C15.7129 29.109 14.8579 29.9968 14.2885 31.0592C13.7018 32.1985 13.396 33.4578 13.396 34.7354C13.396 36.0129 13.7018 37.2722 14.2885 38.4115C14.8579 39.474 15.7129 40.3618 16.7602 40.9777C17.8321 41.6008 19.0579 41.9202 20.3024 41.9008V41.9077ZM20.3024 39.1731C19.5881 39.1818 18.8866 38.9864 18.283 38.61C17.6769 38.2212 17.1907 37.6761 16.8773 37.0338C16.5392 36.3134 16.3641 35.529 16.3641 34.7354C16.3641 33.9418 16.5392 33.1574 16.8773 32.4369C17.1901 31.7945 17.6764 31.2491 18.283 30.8608C18.8903 30.4927 19.5894 30.2979 20.3024 30.2979C21.0155 30.2979 21.7146 30.4927 22.3219 30.8608C22.929 31.2485 23.4155 31.794 23.7275 32.4369C24.067 33.1571 24.243 33.9415 24.243 34.7354C24.243 35.5292 24.067 36.3138 23.7275 37.0338C23.4149 37.6765 22.9285 38.2218 22.3219 38.61C21.7184 38.9866 21.0168 39.1823 20.3024 39.1731Z" fill="black"/>
<path d="M35.3313 27.8008H29.8586V41.67H32.78V37.8462H35.3313C36.3366 37.8708 37.3336 37.6638 38.2433 37.2415C39.0425 36.8638 39.7059 36.2552 40.1457 35.4969C40.5842 34.6733 40.8133 33.7569 40.8133 32.8269C40.8133 31.8969 40.5842 30.9805 40.1457 30.1569C39.7015 29.4028 39.0392 28.7961 38.2433 28.4146C37.3353 27.987 36.3375 27.7768 35.3313 27.8008ZM35.1696 35.2315H32.78V30.4108H35.1603C36.0388 30.4108 36.7041 30.6185 37.161 31.0362C37.6178 31.4538 37.8474 32.0492 37.8474 32.8292C37.8474 33.6092 37.6131 34.1862 37.161 34.6015C36.7088 35.0169 36.0388 35.2269 35.1603 35.2269L35.1696 35.2315Z" fill="black"/>
<path d="M46.2322 39.0946V35.8846H52.0891V33.3877H46.2322V30.3877H52.8669V27.8008H43.3295V41.67H53.1012V39.0946H46.2322Z" fill="black"/>
<path d="M64.569 27.8008V36.2215L58.2904 27.8008H55.8773V41.67H58.7589V33.2492L65.0516 41.67H67.4506V27.8008H64.569Z" fill="black"/>
<path d="M79.5533 27.8008V33.27H73.8182V27.8008H70.8992V41.67H73.8182V35.9838H79.5533V41.67H82.4748V27.8008H79.5533Z" fill="black"/>
<path d="M95.3483 41.67H98.4126L92.7689 27.8008H89.8849L84.2623 41.67H87.254L88.3739 38.6977H94.2308L95.3483 41.67ZM89.3086 36.2608L91.3093 30.9531L93.3101 36.2608H89.3086Z" fill="black"/>
<path d="M108.529 38.58C107.841 38.9792 107.055 39.1844 106.256 39.1731C105.516 39.1906 104.786 38.9984 104.154 38.619C103.521 38.2398 103.012 37.6897 102.688 37.0338C102.343 36.312 102.164 35.5241 102.164 34.7261C102.164 33.9284 102.343 33.1403 102.688 32.4184C103.012 31.7695 103.519 31.2263 104.148 30.8538C104.798 30.4781 105.54 30.2864 106.294 30.3C107.568 30.3 108.656 30.8215 109.557 31.8646L111.431 29.9631C110.834 29.1946 110.055 28.5821 109.161 28.1792C108.215 27.7601 107.186 27.5506 106.148 27.5654C104.895 27.5483 103.661 27.8674 102.578 28.4884C101.526 29.0965 100.668 29.9822 100.099 31.0454C99.5133 32.1904 99.208 33.4553 99.208 34.7377C99.208 36.0203 99.5133 37.2849 100.099 38.43C100.667 39.4906 101.521 40.3758 102.569 40.9869C103.638 41.6081 104.86 41.9273 106.102 41.91C107.029 41.9054 107.949 41.7494 108.824 41.4484C109.693 41.1621 110.5 40.7183 111.204 40.14V34.5161H108.529V38.58Z" fill="black"/>
<path d="M117.255 39.0946V35.8846H123.112V33.3877H117.255V30.3877H123.888V27.8008H114.353V41.67H124.122V39.0946H117.255Z" fill="black"/>
<path d="M135.602 27.8008V36.2215L129.325 27.8008H126.903V41.67H129.787V33.2492L136.07 41.67H138.469V27.8008H135.602Z" fill="black"/>
<path d="M138.479 0H51.6065V7.74231H138.479V0Z" fill="black"/>
<path d="M66.0848 24.5769H141.344V41.7854H149.075V-0.230774H141.344V16.8461H66.0848V24.5769Z" fill="black"/>
</g>
<defs>
<clipPath id="clip0">
<rect width="149" height="42" fill="white"/>
</clipPath>
</defs>
</svg>
